<svg xmlns="http://www.w3.org/2000/svg" xmlns:xlink="http://www.w3.org/1999/xlink" xmlns:inkscape="http://www.inkscape.org/namespaces/inkscape" version="1.1" width="591.363" height="343.213" viewBox="0 0 591.363 343.213">
<path transform="matrix(1,0,0,-1,37.498,137.60901)" d="M148.74057 9.92137H2.83937C1.46379 9.92137 .34868 8.80626 .34868 7.43068V-7.43068C.34868-8.80626 1.46379-9.92137 2.83937-9.92137H148.74057C150.11615-9.92137 151.23126-8.80626 151.23126-7.43068V7.43068C151.23126 8.80626 150.11615 9.92137 148.74057 9.92137ZM.34868-9.92137" fill="#dfe4e4"/>
<path transform="matrix(1,0,0,-1,37.498,137.60901)" stroke-width=".69739" stroke-linecap="butt" stroke-miterlimit="10" stroke-linejoin="miter" fill="none" stroke="#aab7b8" d="M148.74057 9.92137H2.83937C1.46379 9.92137 .34868 8.80626 .34868 7.43068V-7.43068C.34868-8.80626 1.46379-9.92137 2.83937-9.92137H148.74057C150.11615-9.92137 151.23126-8.80626 151.23126-7.43068V7.43068C151.23126 8.80626 150.11615 9.92137 148.74057 9.92137ZM.34868-9.92137"/>
<text xml:space="preserve" transform="matrix(1 0 -0 1 0 343.213)" font-size="9.9626" font-family="Computer Modern" font-weight="bold"><tspan y="-203.213" x="41.334 50.34019 53.51826 59.246759 65.61286 71.18195 78.1757 84.5418 90.270298 93.448368 99.18683 104.43712 109.15939 117.498088 120.99496 126.72345 135.2614 140.9899 153.60256 162.26006 165.43813 169.96115 173.13922 178.86772">GlobalSolversfor3DVision</tspan></text>
<path transform="matrix(1,0,0,-1,199.039,35.616014)" d="M120.19765 8.50403H2.29143C1.19096 8.50403 .29887 7.61194 .29887 6.51147V-6.51147C.29887-7.61194 1.19096-8.50403 2.29143-8.50403H120.19765C121.29811-8.50403 122.1902-7.61194 122.1902-6.51147V6.51147C122.1902 7.61194 121.29811 8.50403 120.19765 8.50403ZM.29887-8.50403" fill="#f0b27a"/>
<path transform="matrix(1,0,0,-1,199.039,35.616014)" stroke-width=".59776" stroke-linecap="butt" stroke-miterlimit="10" stroke-linejoin="miter" fill="none" stroke="#e88b38" d="M120.19765 8.50403H2.29143C1.19096 8.50403 .29887 7.61194 .29887 6.51147V-6.51147C.29887-7.61194 1.19096-8.50403 2.29143-8.50403H120.19765C121.29811-8.50403 122.1902-7.61194 122.1902-6.51147V6.51147C122.1902 7.61194 121.29811 8.50403 120.19765 8.50403ZM.29887-8.50403"/>
<text xml:space="preserve" transform="matrix(1 0 -0 1 .000015258789 343.213)" font-size="9.9626" font-family="Computer Modern" font-weight="bold"><tspan y="-305.206" x="224.109 233.11519 236.29326 242.02176 248.38787 253.95696 260.95069 267.31678 273.04527 276.22334 281.9618 287.20216 291.93437">GlobalSolvers</tspan></text>
<path transform="matrix(1,0,0,-1,331.489,16.18901)" d="M148.49465 7.97021H2.24162C1.14114 7.97021 .24907 7.07813 .24907 5.97766V-5.97766C.24907-7.07813 1.14114-7.97021 2.24162-7.97021H148.49465C149.59513-7.97021 150.4872-7.07813 150.4872-5.97766V5.97766C150.4872 7.07813 149.59513 7.97021 148.49465 7.97021ZM.24907-7.97021" fill="#f8d9bc"/>
<path transform="matrix(1,0,0,-1,331.489,16.18901)" stroke-width=".49814" stroke-linecap="butt" stroke-miterlimit="10" stroke-linejoin="miter" fill="none" stroke="#eea564" d="M148.49465 7.97021H2.24162C1.14114 7.97021 .24907 7.07813 .24907 5.97766V-5.97766C.24907-7.07813 1.14114-7.97021 2.24162-7.97021H148.49465C149.59513-7.97021 150.4872-7.07813 150.4872-5.97766V5.97766C150.4872 7.07813 149.59513 7.97021 148.49465 7.97021ZM.24907-7.97021"/>
<text xml:space="preserve" transform="matrix(1 0 -0 1 0 343.213)" font-size="9.9626" font-family="Computer Modern"><tspan y="-324.633" x="365.608 372.66154 376.56687 381.54817 387.08738 391.2318 396.77104 400.08857 405.06986 410.60908 416.1483 419.46583 426.51936 431.50065 437.03987 442.57908">Branch-and-Bound</tspan></text>
<path transform="matrix(1,0,0,-1,331.489,35.616014)" d="M148.49465 7.97021H2.24162C1.14114 7.97021 .24907 7.07813 .24907 5.97766V-5.97766C.24907-7.07813 1.14114-7.97021 2.24162-7.97021H148.49465C149.59513-7.97021 150.4872-7.07813 150.4872-5.97766V5.97766C150.4872 7.07813 149.59513 7.97021 148.49465 7.97021ZM.24907-7.97021" fill="#f8d9bc"/>
<path transform="matrix(1,0,0,-1,331.489,35.616014)" stroke-width=".49814" stroke-linecap="butt" stroke-miterlimit="10" stroke-linejoin="miter" fill="none" stroke="#eea564" d="M148.49465 7.97021H2.24162C1.14114 7.97021 .24907 7.07813 .24907 5.97766V-5.97766C.24907-7.07813 1.14114-7.97021 2.24162-7.97021H148.49465C149.59513-7.97021 150.4872-7.07813 150.4872-5.97766V5.97766C150.4872 7.07813 149.59513 7.97021 148.49465 7.97021ZM.24907-7.97021"/>
<text xml:space="preserve" transform="matrix(1 0 -0 1 0 343.213)" font-size="9.9626" font-family="Computer Modern"><tspan y="-305.206" x="365.691 372.884 377.8653 383.12556 388.10685 392.53025 401.118 408.4505 412.8739 415.6435 420.6248 425.88505 430.86634 434.7418 437.51139 442.49269">ConvexRelaxation</tspan></text>
<path transform="matrix(1,0,0,-1,492.18598,16.18901)" d="M88.96632 7.97021H2.24162C1.14114 7.97021 .24907 7.07813 .24907 5.97766V-5.97766C.24907-7.07813 1.14114-7.97021 2.24162-7.97021H88.96632C90.06679-7.97021 90.95888-7.07813 90.95888-5.97766V5.97766C90.95888 7.07813 90.06679 7.97021 88.96632 7.97021ZM.24907-7.97021" fill="#fbf0e6"/>
<path transform="matrix(1,0,0,-1,492.18598,16.18901)" stroke-width=".49814" stroke-linecap="butt" stroke-miterlimit="10" stroke-linejoin="miter" fill="none" stroke="#f2bf91" d="M88.96632 7.97021H2.24162C1.14114 7.97021 .24907 7.07813 .24907 5.97766V-5.97766C.24907-7.07813 1.14114-7.97021 2.24162-7.97021H88.96632C90.06679-7.97021 90.95888-7.07813 90.95888-5.97766V5.97766C90.95888 7.07813 90.06679 7.97021 88.96632 7.97021ZM.24907-7.97021"/>
<text xml:space="preserve" transform="matrix(1 0 -0 1 0 343.213)" font-size="9.9626" font-family="Computer Modern"><tspan y="-324.633" x="524.464 530.0032 535.54238 540.5237 544.429 547.1986">Shor&#x2019;s</tspan></text>
<path transform="matrix(1,0,0,-1,492.18598,35.616014)" d="M88.96632 7.97021H2.24162C1.14114 7.97021 .24907 7.07813 .24907 5.97766V-5.97766C.24907-7.07813 1.14114-7.97021 2.24162-7.97021H88.96632C90.06679-7.97021 90.95888-7.07813 90.95888-5.97766V5.97766C90.95888 7.07813 90.06679 7.97021 88.96632 7.97021ZM.24907-7.97021" fill="#fbf0e6"/>
<path transform="matrix(1,0,0,-1,492.18598,35.616014)" stroke-width=".49814" stroke-linecap="butt" stroke-miterlimit="10" stroke-linejoin="miter" fill="none" stroke="#f2bf91" d="M88.96632 7.97021H2.24162C1.14114 7.97021 .24907 7.07813 .24907 5.97766V-5.97766C.24907-7.07813 1.14114-7.97021 2.24162-7.97021H88.96632C90.06679-7.97021 90.95888-7.07813 90.95888-5.97766V5.97766C90.95888 7.07813 90.06679 7.97021 88.96632 7.97021ZM.24907-7.97021"/>
<text xml:space="preserve" transform="matrix(1 0 -0 1 -.000030517579 343.213)" font-size="9.9626" font-family="Computer Modern"><tspan y="-305.206" x="508.732 517.8677 522.849 531.1478 535.5712 540.8315 544.7069 548.0245 553.56369 561.3146">Moment-SOS</tspan></text>
<path transform="matrix(1,0,0,-1,492.18598,55.044008)" d="M88.96632 7.97021H2.24162C1.14114 7.97021 .24907 7.07813 .24907 5.97766V-5.97766C.24907-7.07813 1.14114-7.97021 2.24162-7.97021H88.96632C90.06679-7.97021 90.95888-7.07813 90.95888-5.97766V5.97766C90.95888 7.07813 90.06679 7.97021 88.96632 7.97021ZM.24907-7.97021" fill="#fbf0e6"/>
<path transform="matrix(1,0,0,-1,492.18598,55.044008)" stroke-width=".49814" stroke-linecap="butt" stroke-miterlimit="10" stroke-linejoin="miter" fill="none" stroke="#f2bf91" d="M88.96632 7.97021H2.24162C1.14114 7.97021 .24907 7.07813 .24907 5.97766V-5.97766C.24907-7.07813 1.14114-7.97021 2.24162-7.97021H88.96632C90.06679-7.97021 90.95888-7.07813 90.95888-5.97766V5.97766C90.95888 7.07813 90.06679 7.97021 88.96632 7.97021ZM.24907-7.97021"/>
<text xml:space="preserve" transform="matrix(1 0 -0 1 -.000030517579 343.213)" font-size="9.9626" font-family="Computer Modern"><tspan y="-285.778" x="497.966 505.71693 509.59239 515.1316 519.555 526.7779 534.11038 538.53378 541.30337 546.28469 551.5449 556.52627 560.4017 563.17129 568.1526 573.6918">OtherRelaxations</tspan></text>
<path transform="matrix(1,0,0,-1,331.489,55.044008)" d="M148.49465 7.97021H2.24162C1.14114 7.97021 .24907 7.07813 .24907 5.97766V-5.97766C.24907-7.07813 1.14114-7.97021 2.24162-7.97021H148.49465C149.59513-7.97021 150.4872-7.07813 150.4872-5.97766V5.97766C150.4872 7.07813 149.59513 7.97021 148.49465 7.97021ZM.24907-7.97021" fill="#f8d9bc"/>
<path transform="matrix(1,0,0,-1,331.489,55.044008)" stroke-width=".49814" stroke-linecap="butt" stroke-miterlimit="10" stroke-linejoin="miter" fill="none" stroke="#eea564" d="M148.49465 7.97021H2.24162C1.14114 7.97021 .24907 7.07813 .24907 5.97766V-5.97766C.24907-7.07813 1.14114-7.97021 2.24162-7.97021H148.49465C149.59513-7.97021 150.4872-7.07813 150.4872-5.97766V5.97766C150.4872 7.07813 149.59513 7.97021 148.49465 7.97021ZM.24907-7.97021"/>
<text xml:space="preserve" transform="matrix(1 0 -0 1 0 343.213)" font-size="9.9626" font-family="Computer Modern"><tspan y="-285.778" x="349.384 357.20466 361.11 366.09129 371.6305 377.1697 382.151 386.02647 390.44987 399.3066 406.77857 411.75987 417.29908 420.6166 427.8096 432.7909 438.05116 443.04243 447.46583 452.72608 455.49568 459.09217">GraduatedNon-Convexity</tspan></text>
<path transform="matrix(1,0,0,-1,199.039,103.61101)" d="M120.19765 8.50403H2.29143C1.19096 8.50403 .29887 7.61194 .29887 6.51147V-6.51147C.29887-7.61194 1.19096-8.50403 2.29143-8.50403H120.19765C121.29811-8.50403 122.1902-7.61194 122.1902-6.51147V6.51147C122.1902 7.61194 121.29811 8.50403 120.19765 8.50403ZM.29887-8.50403" fill="#7dcea0"/>
<path transform="matrix(1,0,0,-1,199.039,103.61101)" stroke-width=".59776" stroke-linecap="butt" stroke-miterlimit="10" stroke-linejoin="miter" fill="none" stroke="#3db670" d="M120.19765 8.50403H2.29143C1.19096 8.50403 .29887 7.61194 .29887 6.51147V-6.51147C.29887-7.61194 1.19096-8.50403 2.29143-8.50403H120.19765C121.29811-8.50403 122.1902-7.61194 122.1902-6.51147V6.51147C122.1902 7.61194 121.29811 8.50403 120.19765 8.50403ZM.29887-8.50403"/>
<text xml:space="preserve" transform="matrix(1 0 -0 1 0 343.213)" font-size="9.9626" font-family="Computer Modern" font-weight="bold"><tspan y="-237.211" x="205.155 213.43392 219.16242 228.70659 235.0727 240.64179 245.36406 250.93315 255.38643 258.56449 264.29298 273.36894 282.02644 288.39253 293.9616 297.13969 303.18699 307.71 310.88807">ComparativeAnalysis</tspan></text>
<path transform="matrix(1,0,0,-1,331.489,74.47101)" d="M148.49465 7.97021H2.24162C1.14114 7.97021 .24907 7.07813 .24907 5.97766V-5.97766C.24907-7.07813 1.14114-7.97021 2.24162-7.97021H148.49465C149.59513-7.97021 150.4872-7.07813 150.4872-5.97766V5.97766C150.4872 7.07813 149.59513 7.97021 148.49465 7.97021ZM.24907-7.97021" fill="#bee6cf"/>
<path transform="matrix(1,0,0,-1,331.489,74.47101)" stroke-width=".49814" stroke-linecap="butt" stroke-miterlimit="10" stroke-linejoin="miter" fill="none" stroke="#68c690" d="M148.49465 7.97021H2.24162C1.14114 7.97021 .24907 7.07813 .24907 5.97766V-5.97766C.24907-7.07813 1.14114-7.97021 2.24162-7.97021H148.49465C149.59513-7.97021 150.4872-7.07813 150.4872-5.97766V5.97766C150.4872 7.07813 149.59513 7.97021 148.49465 7.97021ZM.24907-7.97021"/>
<text xml:space="preserve" transform="matrix(1 0 -0 1 0 343.213)" font-size="9.9626" font-family="Computer Modern"><tspan y="-266.351" x="356.828 364.57893 370.11814 373.9936 376.76319 385.06205 390.04335 392.81294 395.58253 399.17903 407.7568 415.5874 421.11668 426.09797 430.0033 434.9846 440.25483 444.13029 448.55369 452.97709">OptimalityGuarantees</tspan></text>
<path transform="matrix(1,0,0,-1,331.489,93.89801)" d="M148.49465 7.97021H2.24162C1.14114 7.97021 .24907 7.07813 .24907 5.97766V-5.97766C.24907-7.07813 1.14114-7.97021 2.24162-7.97021H148.49465C149.59513-7.97021 150.4872-7.07813 150.4872-5.97766V5.97766C150.4872 7.07813 149.59513 7.97021 148.49465 7.97021ZM.24907-7.97021" fill="#bee6cf"/>
<path transform="matrix(1,0,0,-1,331.489,93.89801)" stroke-width=".49814" stroke-linecap="butt" stroke-miterlimit="10" stroke-linejoin="miter" fill="none" stroke="#68c690" d="M148.49465 7.97021H2.24162C1.14114 7.97021 .24907 7.07813 .24907 5.97766V-5.97766C.24907-7.07813 1.14114-7.97021 2.24162-7.97021H148.49465C149.59513-7.97021 150.4872-7.07813 150.4872-5.97766V5.97766C150.4872 7.07813 149.59513 7.97021 148.49465 7.97021ZM.24907-7.97021"/>
<text xml:space="preserve" transform="matrix(1 0 -0 1 0 343.213)" font-size="9.9626" font-family="Computer Modern"><tspan y="-246.924" x="351.923 359.116 364.0973 372.39616 377.93537 380.70497 385.12837 390.3886 393.1582 396.7547 405.34248 416.41093 421.95014 426.37355 431.35484 434.12443 439.1057 444.64494 447.41453 450.1841 452.9537 456.5502">Complexity&#x0026;Scalability</tspan></text>
<path transform="matrix(1,0,0,-1,331.489,113.32501)" d="M148.49465 7.97021H2.24162C1.14114 7.97021 .24907 7.07813 .24907 5.97766V-5.97766C.24907-7.07813 1.14114-7.97021 2.24162-7.97021H148.49465C149.59513-7.97021 150.4872-7.07813 150.4872-5.97766V5.97766C150.4872 7.07813 149.59513 7.97021 148.49465 7.97021ZM.24907-7.97021" fill="#bee6cf"/>
<path transform="matrix(1,0,0,-1,331.489,113.32501)" stroke-width=".49814" stroke-linecap="butt" stroke-miterlimit="10" stroke-linejoin="miter" fill="none" stroke="#68c690" d="M148.49465 7.97021H2.24162C1.14114 7.97021 .24907 7.07813 .24907 5.97766V-5.97766C.24907-7.07813 1.14114-7.97021 2.24162-7.97021H148.49465C149.59513-7.97021 150.4872-7.07813 150.4872-5.97766V5.97766C150.4872 7.07813 149.59513 7.97021 148.49465 7.97021ZM.24907-7.97021"/>
<text xml:space="preserve" transform="matrix(1 0 -0 1 0 343.213)" font-size="9.9626" font-family="Computer Modern"><tspan y="-227.497" x="357.126 364.4585 369.4398 374.979 380.51823 384.44349 388.31895 393.85816 398.28157 402.20683 409.44963 413.32508 421.63389 429.3848 434.924 438.79948 441.56907 444.33866 448.76206 452.6674">RobustnesstoOutliers</tspan></text>
<path transform="matrix(1,0,0,-1,331.489,132.75202)" d="M148.49465 7.97021H2.24162C1.14114 7.97021 .24907 7.07813 .24907 5.97766V-5.97766C.24907-7.07813 1.14114-7.97021 2.24162-7.97021H148.49465C149.59513-7.97021 150.4872-7.07813 150.4872-5.97766V5.97766C150.4872 7.07813 149.59513 7.97021 148.49465 7.97021ZM.24907-7.97021" fill="#bee6cf"/>
<path transform="matrix(1,0,0,-1,331.489,132.75202)" stroke-width=".49814" stroke-linecap="butt" stroke-miterlimit="10" stroke-linejoin="miter" fill="none" stroke="#68c690" d="M148.49465 7.97021H2.24162C1.14114 7.97021 .24907 7.07813 .24907 5.97766V-5.97766C.24907-7.07813 1.14114-7.97021 2.24162-7.97021H148.49465C149.59513-7.97021 150.4872-7.07813 150.4872-5.97766V5.97766C150.4872 7.07813 149.59513 7.97021 148.49465 7.97021ZM.24907-7.97021"/>
<text xml:space="preserve" transform="matrix(1 0 -0 1 0 343.213)" font-size="9.9626" font-family="Computer Modern"><tspan y="-208.07" x="335.665 344.80073 349.22413 353.09959 358.6388 363.89906 372.7558 378.295 382.7184 385.488 389.9114 394.3348 398.21028 400.97987 405.96116 414.8179 425.89634 433.50776 437.93116 443.47038 446.23997 450.9423 456.20256 464.5014 468.9248 474.18507">MethodSelection&#x0026;Deployment</tspan></text>
<path transform="matrix(1,0,0,-1,199.039,239.602)" d="M120.19765 8.50403H2.29143C1.19096 8.50403 .29887 7.61194 .29887 6.51147V-6.51147C.29887-7.61194 1.19096-8.50403 2.29143-8.50403H120.19765C121.29811-8.50403 122.1902-7.61194 122.1902-6.51147V6.51147C122.1902 7.61194 121.29811 8.50403 120.19765 8.50403ZM.29887-8.50403" fill="#85c1e9"/>
<path transform="matrix(1,0,0,-1,199.039,239.602)" stroke-width=".59776" stroke-linecap="butt" stroke-miterlimit="10" stroke-linejoin="miter" fill="none" stroke="#48a2df" d="M120.19765 8.50403H2.29143C1.19096 8.50403 .29887 7.61194 .29887 6.51147V-6.51147C.29887-7.61194 1.19096-8.50403 2.29143-8.50403H120.19765C121.29811-8.50403 122.1902-7.61194 122.1902-6.51147V6.51147C122.1902 7.61194 121.29811 8.50403 120.19765 8.50403ZM.29887-8.50403"/>
<text xml:space="preserve" transform="matrix(1 0 -0 1 0 343.213)" font-size="9.9626" font-family="Computer Modern" font-weight="bold"><tspan y="-101.22" x="206.839 213.85268 219.42177 223.9448 229.9921 238.34076 251.063 259.7205 266.08659 272.45268 275.63075 278.8088 283.8997 289.46879 293.92207 297.10014 302.8286 309.1947">Tasks&#x0026;Applications</tspan></text>
<path transform="matrix(1,0,0,-1,331.489,152.17902)" d="M148.49465 7.97021H2.24162C1.14114 7.97021 .24907 7.07813 .24907 5.97766V-5.97766C.24907-7.07813 1.14114-7.97021 2.24162-7.97021H148.49465C149.59513-7.97021 150.4872-7.07813 150.4872-5.97766V5.97766C150.4872 7.07813 149.59513 7.97021 148.49465 7.97021ZM.24907-7.97021" fill="#c2e0f4"/>
<path transform="matrix(1,0,0,-1,331.489,152.17902)" stroke-width=".49814" stroke-linecap="butt" stroke-miterlimit="10" stroke-linejoin="miter" fill="none" stroke="#71b7e6" d="M148.49465 7.97021H2.24162C1.14114 7.97021 .24907 7.07813 .24907 5.97766V-5.97766C.24907-7.07813 1.14114-7.97021 2.24162-7.97021H148.49465C149.59513-7.97021 150.4872-7.07813 150.4872-5.97766V5.97766C150.4872 7.07813 149.59513 7.97021 148.49465 7.97021ZM.24907-7.97021"/>
<text xml:space="preserve" transform="matrix(1 0 -0 1 0 343.213)" font-size="9.9626" font-family="Computer Modern"><tspan y="-188.643" x="371.766 381.18064 386.16194 391.42219 396.9614 405.26023 412.04478 415.9501 420.9314 426.4706 429.2402 433.6636">WahbaProblem</tspan></text>
<path transform="matrix(1,0,0,-1,331.489,171.60701)" d="M148.49465 7.97021H2.24162C1.14114 7.97021 .24907 7.07813 .24907 5.97766V-5.97766C.24907-7.07813 1.14114-7.97021 2.24162-7.97021H148.49465C149.59513-7.97021 150.4872-7.07813 150.4872-5.97766V5.97766C150.4872 7.07813 149.59513 7.97021 148.49465 7.97021ZM.24907-7.97021" fill="#c2e0f4"/>
<path transform="matrix(1,0,0,-1,331.489,171.60701)" stroke-width=".49814" stroke-linecap="butt" stroke-miterlimit="10" stroke-linejoin="miter" fill="none" stroke="#71b7e6" d="M148.49465 7.97021H2.24162C1.14114 7.97021 .24907 7.07813 .24907 5.97766V-5.97766C.24907-7.07813 1.14114-7.97021 2.24162-7.97021H148.49465C149.59513-7.97021 150.4872-7.07813 150.4872-5.97766V5.97766C150.4872 7.07813 149.59513 7.97021 148.49465 7.97021ZM.24907-7.97021"/>
<text xml:space="preserve" transform="matrix(1 0 -0 1 .000030517579 343.213)" font-size="9.9626" font-family="Computer Modern"><tspan y="-169.215" x="346.61 353.25505 358.23634 363.77555 366.54515 370.4704 376.0096 378.7792 384.31843 392.61726 399.12284 404.10414 406.87373 412.13398 419.33695 426.1215 430.04676 433.9222 436.6918 444.99067 449.97196 453.8474 456.617 461.5983">VanishingPointEstimation</tspan></text>
<path transform="matrix(1,0,0,-1,331.489,191.03401)" d="M148.49465 7.97021H2.24162C1.14114 7.97021 .24907 7.07813 .24907 5.97766V-5.97766C.24907-7.07813 1.14114-7.97021 2.24162-7.97021H148.49465C149.59513-7.97021 150.4872-7.07813 150.4872-5.97766V5.97766C150.4872 7.07813 149.59513 7.97021 148.49465 7.97021ZM.24907-7.97021" fill="#c2e0f4"/>
<path transform="matrix(1,0,0,-1,331.489,191.03401)" stroke-width=".49814" stroke-linecap="butt" stroke-miterlimit="10" stroke-linejoin="miter" fill="none" stroke="#71b7e6" d="M148.49465 7.97021H2.24162C1.14114 7.97021 .24907 7.07813 .24907 5.97766V-5.97766C.24907-7.07813 1.14114-7.97021 2.24162-7.97021H148.49465C149.59513-7.97021 150.4872-7.07813 150.4872-5.97766V5.97766C150.4872 7.07813 149.59513 7.97021 148.49465 7.97021ZM.24907-7.97021"/>
<text xml:space="preserve" transform="matrix(1 0 -0 1 .000030517579 343.213)" font-size="9.9626" font-family="Computer Modern"><tspan y="-149.788" x="350.456 357.92796 363.46717 367.39244 372.37373 375.1433 380.68254 384.55799 392.29893 398.81449 403.79579 407.72105 415.46199 422.24653 426.17179 430.04725 432.81684 441.1157 446.097 449.97245 452.74205 457.72334">AbsolutePoseEstimation</tspan></text>
<path transform="matrix(1,0,0,-1,331.489,210.461)" d="M148.49465 7.97021H2.24162C1.14114 7.97021 .24907 7.07813 .24907 5.97766V-5.97766C.24907-7.07813 1.14114-7.97021 2.24162-7.97021H148.49465C149.59513-7.97021 150.4872-7.07813 150.4872-5.97766V5.97766C150.4872 7.07813 149.59513 7.97021 148.49465 7.97021ZM.24907-7.97021" fill="#c2e0f4"/>
<path transform="matrix(1,0,0,-1,331.489,210.461)" stroke-width=".49814" stroke-linecap="butt" stroke-miterlimit="10" stroke-linejoin="miter" fill="none" stroke="#71b7e6" d="M148.49465 7.97021H2.24162C1.14114 7.97021 .24907 7.07813 .24907 5.97766V-5.97766C.24907-7.07813 1.14114-7.97021 2.24162-7.97021H148.49465C149.59513-7.97021 150.4872-7.07813 150.4872-5.97766V5.97766C150.4872 7.07813 149.59513 7.97021 148.49465 7.97021ZM.24907-7.97021"/>
<text xml:space="preserve" transform="matrix(1 0 -0 1 0 343.213)" font-size="9.9626" font-family="Computer Modern"><tspan y="-130.361" x="351.937 359.2695 363.6929 366.4625 371.4438 375.31925 378.08885 383.07014 390.82106 397.32664 402.30793 406.2332 413.97413 420.75868 424.68394 428.5594 431.32899 439.62785 444.60914 448.4846 451.25419 456.23548">RelativePoseEstimation</tspan></text>
<path transform="matrix(1,0,0,-1,331.489,229.888)" d="M148.49465 7.97021H2.24162C1.14114 7.97021 .24907 7.07813 .24907 5.97766V-5.97766C.24907-7.07813 1.14114-7.97021 2.24162-7.97021H148.49465C149.59513-7.97021 150.4872-7.07813 150.4872-5.97766V5.97766C150.4872 7.07813 149.59513 7.97021 148.49465 7.97021ZM.24907-7.97021" fill="#c2e0f4"/>
<path transform="matrix(1,0,0,-1,331.489,229.888)" stroke-width=".49814" stroke-linecap="butt" stroke-miterlimit="10" stroke-linejoin="miter" fill="none" stroke="#71b7e6" d="M148.49465 7.97021H2.24162C1.14114 7.97021 .24907 7.07813 .24907 5.97766V-5.97766C.24907-7.07813 1.14114-7.97021 2.24162-7.97021H148.49465C149.59513-7.97021 150.4872-7.07813 150.4872-5.97766V5.97766C150.4872 7.07813 149.59513 7.97021 148.49465 7.97021ZM.24907-7.97021"/>
<text xml:space="preserve" transform="matrix(1 0 -0 1 .000030517579 343.213)" font-size="9.9626" font-family="Computer Modern"><tspan y="-110.934" x="372.222 377.20329 388.13224 395.46473 399.88813 404.86943 407.639 411.56428 415.43974 419.34507 424.32637 428.2018 430.9714 435.9527">3DRegistration</tspan></text>
<path transform="matrix(1,0,0,-1,331.489,249.315)" d="M148.49465 7.97021H2.24162C1.14114 7.97021 .24907 7.07813 .24907 5.97766V-5.97766C.24907-7.07813 1.14114-7.97021 2.24162-7.97021H148.49465C149.59513-7.97021 150.4872-7.07813 150.4872-5.97766V5.97766C150.4872 7.07813 149.59513 7.97021 148.49465 7.97021ZM.24907-7.97021" fill="#c2e0f4"/>
<path transform="matrix(1,0,0,-1,331.489,249.315)" stroke-width=".49814" stroke-linecap="butt" stroke-miterlimit="10" stroke-linejoin="miter" fill="none" stroke="#71b7e6" d="M148.49465 7.97021H2.24162C1.14114 7.97021 .24907 7.07813 .24907 5.97766V-5.97766C.24907-7.07813 1.14114-7.97021 2.24162-7.97021H148.49465C149.59513-7.97021 150.4872-7.07813 150.4872-5.97766V5.97766C150.4872 7.07813 149.59513 7.97021 148.49465 7.97021ZM.24907-7.97021"/>
<text xml:space="preserve" transform="matrix(1 0 -0 1 .000030517579 343.213)" font-size="9.9626" font-family="Computer Modern"><tspan y="-91.507" x="364.017 371.3495 376.33079 380.20625 385.18754 389.063 391.83259 396.81388 405.67063 413.14259 418.12388 422.55723 426.4526 431.4339 436.4152 439.18479 444.724">RotationAveraging</tspan></text>
<path transform="matrix(1,0,0,-1,331.489,268.742)" d="M148.49465 7.97021H2.24162C1.14114 7.97021 .24907 7.07813 .24907 5.97766V-5.97766C.24907-7.07813 1.14114-7.97021 2.24162-7.97021H148.49465C149.59513-7.97021 150.4872-7.07813 150.4872-5.97766V5.97766C150.4872 7.07813 149.59513 7.97021 148.49465 7.97021ZM.24907-7.97021" fill="#c2e0f4"/>
<path transform="matrix(1,0,0,-1,331.489,268.742)" stroke-width=".49814" stroke-linecap="butt" stroke-miterlimit="10" stroke-linejoin="miter" fill="none" stroke="#71b7e6" d="M148.49465 7.97021H2.24162C1.14114 7.97021 .24907 7.07813 .24907 5.97766V-5.97766C.24907-7.07813 1.14114-7.97021 2.24162-7.97021H148.49465C149.59513-7.97021 150.4872-7.07813 150.4872-5.97766V5.97766C150.4872 7.07813 149.59513 7.97021 148.49465 7.97021ZM.24907-7.97021"/>
<text xml:space="preserve" transform="matrix(1 0 -0 1 0 343.213)" font-size="9.9626" font-family="Computer Modern"><tspan y="-72.08" x="358.371 364.7371 368.64244 373.62373 379.16294 383.0882 385.8578 390.83909 394.71455 397.48414 402.46543 411.32218 418.79414 423.77543 428.19883 432.10417 437.08546 442.06675 444.83634 450.37556">TranslationAveraging</tspan></text>
<path transform="matrix(1,0,0,-1,331.489,288.169)" d="M148.49465 7.97021H2.24162C1.14114 7.97021 .24907 7.07813 .24907 5.97766V-5.97766C.24907-7.07813 1.14114-7.97021 2.24162-7.97021H148.49465C149.59513-7.97021 150.4872-7.07813 150.4872-5.97766V5.97766C150.4872 7.07813 149.59513 7.97021 148.49465 7.97021ZM.24907-7.97021" fill="#c2e0f4"/>
<path transform="matrix(1,0,0,-1,331.489,288.169)" stroke-width=".49814" stroke-linecap="butt" stroke-miterlimit="10" stroke-linejoin="miter" fill="none" stroke="#71b7e6" d="M148.49465 7.97021H2.24162C1.14114 7.97021 .24907 7.07813 .24907 5.97766V-5.97766C.24907-7.07813 1.14114-7.97021 2.24162-7.97021H148.49465C149.59513-7.97021 150.4872-7.07813 150.4872-5.97766V5.97766C150.4872 7.07813 149.59513 7.97021 148.49465 7.97021ZM.24907-7.97021"/>
<text xml:space="preserve" transform="matrix(1 0 -0 1 .000030517579 343.213)" font-size="9.9626" font-family="Computer Modern"><tspan y="-52.653" x="377.369 383.73509 387.6404 390.41 395.3913 400.9305 405.9118 411.45103 414.2206 419.2019 423.07737 425.84696 430.82826">Triangulation</tspan></text>
<path transform="matrix(1,0,0,-1,331.489,307.59703)" d="M148.49465 7.97021H2.24162C1.14114 7.97021 .24907 7.07813 .24907 5.97766V-5.97766C.24907-7.07813 1.14114-7.97021 2.24162-7.97021H148.49465C149.59513-7.97021 150.4872-7.07813 150.4872-5.97766V5.97766C150.4872 7.07813 149.59513 7.97021 148.49465 7.97021ZM.24907-7.97021" fill="#c2e0f4"/>
<path transform="matrix(1,0,0,-1,331.489,307.59703)" stroke-width=".49814" stroke-linecap="butt" stroke-miterlimit="10" stroke-linejoin="miter" fill="none" stroke="#71b7e6" d="M148.49465 7.97021H2.24162C1.14114 7.97021 .24907 7.07813 .24907 5.97766V-5.97766C.24907-7.07813 1.14114-7.97021 2.24162-7.97021H148.49465C149.59513-7.97021 150.4872-7.07813 150.4872-5.97766V5.97766C150.4872 7.07813 149.59513 7.97021 148.49465 7.97021ZM.24907-7.97021"/>
<text xml:space="preserve" transform="matrix(1 0 -0 1 0 343.213)" font-size="9.9626" font-family="Computer Modern"><tspan y="-33.225" x="350.948 357.45359 362.43489 366.36015 374.11106 381.9317 385.83705 390.81834 396.35755 405.2143 412.9652 418.50444 422.37989 425.14949 433.44834 436.21794 440.64134 445.62263 449.49809 452.26768 457.24897">PoseGraphOptimization</tspan></text>
<path transform="matrix(1,0,0,-1,331.489,327.024)" d="M148.49465 7.97021H2.24162C1.14114 7.97021 .24907 7.07813 .24907 5.97766V-5.97766C.24907-7.07813 1.14114-7.97021 2.24162-7.97021H148.49465C149.59513-7.97021 150.4872-7.07813 150.4872-5.97766V5.97766C150.4872 7.07813 149.59513 7.97021 148.49465 7.97021ZM.24907-7.97021" fill="#c2e0f4"/>
<path transform="matrix(1,0,0,-1,331.489,327.024)" stroke-width=".49814" stroke-linecap="butt" stroke-miterlimit="10" stroke-linejoin="miter" fill="none" stroke="#71b7e6" d="M148.49465 7.97021H2.24162C1.14114 7.97021 .24907 7.07813 .24907 5.97766V-5.97766C.24907-7.07813 1.14114-7.97021 2.24162-7.97021H148.49465C149.59513-7.97021 150.4872-7.07813 150.4872-5.97766V5.97766C150.4872 7.07813 149.59513 7.97021 148.49465 7.97021ZM.24907-7.97021"/>
<text xml:space="preserve" transform="matrix(1 0 -0 1 .000030517579 343.21299)" font-size="9.9626" font-family="Computer Modern"><tspan y="-13.798" x="364.141 371.19453 376.73374 382.27296 387.81217 390.58177 398.3227 405.79466 411.33387 414.38243 419.92164 423.8469 427.72236 436.0212 440.4446 445.70487">BundleAdjustment</tspan></text>
<path transform="matrix(1,0,0,-1,37.498,137.60901)" stroke-width=".59776" stroke-linecap="butt" stroke-miterlimit="10" stroke-linejoin="miter" fill="none" stroke="#666666" d="M151.57996 0H154.56879V101.99384H161.54273"/>
<path transform="matrix(1,0,0,-1,37.498,137.60901)" stroke-width=".59776" stroke-linecap="butt" stroke-miterlimit="10" stroke-linejoin="miter" fill="none" stroke="#666666" d="M284.0318 101.99384H287.02067V121.42123H293.99458"/>
<path transform="matrix(1,0,0,-1,37.498,137.60901)" stroke-width=".59776" stroke-linecap="butt" stroke-miterlimit="10" stroke-linejoin="miter" fill="none" stroke="#666666" d="M284.0318 101.99384H287.02067 293.99458"/>
<path transform="matrix(1,0,0,-1,37.498,137.60901)" stroke-width=".59776" stroke-linecap="butt" stroke-miterlimit="10" stroke-linejoin="miter" fill="none" stroke="#666666" d="M444.73088 101.99384H447.7197V121.42123H454.69364"/>
<path transform="matrix(1,0,0,-1,37.498,137.60901)" stroke-width=".59776" stroke-linecap="butt" stroke-miterlimit="10" stroke-linejoin="miter" fill="none" stroke="#666666" d="M444.73088 101.99384H447.7197 454.69364"/>
<path transform="matrix(1,0,0,-1,37.498,137.60901)" stroke-width=".59776" stroke-linecap="butt" stroke-miterlimit="10" stroke-linejoin="miter" fill="none" stroke="#666666" d="M444.73088 101.99384H447.7197V82.56644H454.69364"/>
<path transform="matrix(1,0,0,-1,37.498,137.60901)" stroke-width=".59776" stroke-linecap="butt" stroke-miterlimit="10" stroke-linejoin="miter" fill="none" stroke="#666666" d="M284.0318 101.99384H287.02067V82.56644H293.99458"/>
<path transform="matrix(1,0,0,-1,37.498,137.60901)" stroke-width=".59776" stroke-linecap="butt" stroke-miterlimit="10" stroke-linejoin="miter" fill="none" stroke="#666666" d="M151.57996 0H154.56879V33.99794H161.54273"/>
<path transform="matrix(1,0,0,-1,37.498,137.60901)" stroke-width=".59776" stroke-linecap="butt" stroke-miterlimit="10" stroke-linejoin="miter" fill="none" stroke="#666666" d="M284.0318 33.99794H287.02067V63.13904H293.99458"/>
<path transform="matrix(1,0,0,-1,37.498,137.60901)" stroke-width=".59776" stroke-linecap="butt" stroke-miterlimit="10" stroke-linejoin="miter" fill="none" stroke="#666666" d="M284.0318 33.99794H287.02067V43.71164H293.99458"/>
<path transform="matrix(1,0,0,-1,37.498,137.60901)" stroke-width=".59776" stroke-linecap="butt" stroke-miterlimit="10" stroke-linejoin="miter" fill="none" stroke="#666666" d="M284.0318 33.99794H287.02067V24.28424H293.99458"/>
<path transform="matrix(1,0,0,-1,37.498,137.60901)" stroke-width=".59776" stroke-linecap="butt" stroke-miterlimit="10" stroke-linejoin="miter" fill="none" stroke="#666666" d="M284.0318 33.99794H287.02067V4.85684H293.99458"/>
<path transform="matrix(1,0,0,-1,37.498,137.60901)" stroke-width=".59776" stroke-linecap="butt" stroke-miterlimit="10" stroke-linejoin="miter" fill="none" stroke="#666666" d="M151.57996 0H154.56879V-101.99384H161.54273"/>
<path transform="matrix(1,0,0,-1,37.498,137.60901)" stroke-width=".59776" stroke-linecap="butt" stroke-miterlimit="10" stroke-linejoin="miter" fill="none" stroke="#666666" d="M284.0318-101.99384H287.02067V-14.57054H293.99458"/>
<path transform="matrix(1,0,0,-1,37.498,137.60901)" stroke-width=".59776" stroke-linecap="butt" stroke-miterlimit="10" stroke-linejoin="miter" fill="none" stroke="#666666" d="M284.0318-101.99384H287.02067V-33.99794H293.99458"/>
<path transform="matrix(1,0,0,-1,37.498,137.60901)" stroke-width=".59776" stroke-linecap="butt" stroke-miterlimit="10" stroke-linejoin="miter" fill="none" stroke="#666666" d="M284.0318-101.99384H287.02067V-53.42534H293.99458"/>
<path transform="matrix(1,0,0,-1,37.498,137.60901)" stroke-width=".59776" stroke-linecap="butt" stroke-miterlimit="10" stroke-linejoin="miter" fill="none" stroke="#666666" d="M284.0318-101.99384H287.02067V-72.85274H293.99458"/>
<path transform="matrix(1,0,0,-1,37.498,137.60901)" stroke-width=".59776" stroke-linecap="butt" stroke-miterlimit="10" stroke-linejoin="miter" fill="none" stroke="#666666" d="M284.0318-101.99384H287.02067V-92.28014H293.99458"/>
<path transform="matrix(1,0,0,-1,37.498,137.60901)" stroke-width=".59776" stroke-linecap="butt" stroke-miterlimit="10" stroke-linejoin="miter" fill="none" stroke="#666666" d="M284.0318-101.99384H287.02067V-111.70753H293.99458"/>
<path transform="matrix(1,0,0,-1,37.498,137.60901)" stroke-width=".59776" stroke-linecap="butt" stroke-miterlimit="10" stroke-linejoin="miter" fill="none" stroke="#666666" d="M284.0318-101.99384H287.02067V-131.13494H293.99458"/>
<path transform="matrix(1,0,0,-1,37.498,137.60901)" stroke-width=".59776" stroke-linecap="butt" stroke-miterlimit="10" stroke-linejoin="miter" fill="none" stroke="#666666" d="M284.0318-101.99384H287.02067V-150.56233H293.99458"/>
<path transform="matrix(1,0,0,-1,37.498,137.60901)" stroke-width=".59776" stroke-linecap="butt" stroke-miterlimit="10" stroke-linejoin="miter" fill="none" stroke="#666666" d="M284.0318-101.99384H287.02067V-169.98973H293.99458"/>
<path transform="matrix(1,0,0,-1,37.498,137.60901)" stroke-width=".59776" stroke-linecap="butt" stroke-miterlimit="10" stroke-linejoin="miter" fill="none" stroke="#666666" d="M284.0318-101.99384H287.02067V-189.41713H293.99458"/>
</svg>
